<mxfile host="65bd71144e">
    <diagram name="Страница 1" id="gq0CiVJgTJST3OxgQsjK">
        <mxGraphModel dx="937" dy="605" grid="1" gridSize="10" guides="1" tooltips="1" connect="1" arrows="1" fold="1" page="1" pageScale="1" pageWidth="827" pageHeight="1169" math="0" shadow="0">
            <root>
                <mxCell id="0"/>
                <mxCell id="1" parent="0"/>
                <mxCell id="bVAq5hhvytEnUKoD61cl-19" style="edgeStyle=orthogonalEdgeStyle;shape=link;rounded=0;orthogonalLoop=1;jettySize=auto;html=1;exitX=0.5;exitY=1;exitDx=0;exitDy=0;exitPerimeter=0;entryX=0.5;entryY=0;entryDx=0;entryDy=0;entryPerimeter=0;dashed=1;dashPattern=8 8;" parent="1" source="bVAq5hhvytEnUKoD61cl-3" target="bVAq5hhvytEnUKoD61cl-17" edge="1">
                    <mxGeometry relative="1" as="geometry"/>
                </mxCell>
                <mxCell id="bVAq5hhvytEnUKoD61cl-3" value="Master&lt;br&gt;oddBooks_id&lt;br&gt;oddCustomer_id&lt;br&gt;Stores_id" style="strokeWidth=2;html=1;shape=mxgraph.flowchart.database;whiteSpace=wrap;" parent="1" vertex="1">
                    <mxGeometry x="70" y="270" width="100" height="110" as="geometry"/>
                </mxCell>
                <mxCell id="bVAq5hhvytEnUKoD61cl-6" value="DB_customers&lt;br&gt;_and_books_1" style="text;html=1;align=center;verticalAlign=middle;resizable=0;points=[];autosize=1;strokeColor=none;fillColor=none;" parent="1" vertex="1">
                    <mxGeometry x="70" y="230" width="100" height="40" as="geometry"/>
                </mxCell>
                <mxCell id="bVAq5hhvytEnUKoD61cl-7" value="DB_customers&lt;br&gt;_and_books_2" style="text;html=1;align=center;verticalAlign=middle;resizable=0;points=[];autosize=1;strokeColor=none;fillColor=none;" parent="1" vertex="1">
                    <mxGeometry x="280" y="230" width="100" height="40" as="geometry"/>
                </mxCell>
                <mxCell id="bVAq5hhvytEnUKoD61cl-20" style="edgeStyle=orthogonalEdgeStyle;shape=link;rounded=0;orthogonalLoop=1;jettySize=auto;html=1;exitX=0.5;exitY=1;exitDx=0;exitDy=0;exitPerimeter=0;entryX=0.5;entryY=0;entryDx=0;entryDy=0;entryPerimeter=0;dashed=1;dashPattern=8 8;" parent="1" source="bVAq5hhvytEnUKoD61cl-8" target="bVAq5hhvytEnUKoD61cl-18" edge="1">
                    <mxGeometry relative="1" as="geometry"/>
                </mxCell>
                <mxCell id="bVAq5hhvytEnUKoD61cl-8" value="Master&lt;br&gt;evenBooks_id&lt;br&gt;evenCustomer_id&lt;br&gt;Stores_id" style="strokeWidth=2;html=1;shape=mxgraph.flowchart.database;whiteSpace=wrap;" parent="1" vertex="1">
                    <mxGeometry x="280" y="270" width="100" height="110" as="geometry"/>
                </mxCell>
                <mxCell id="bVAq5hhvytEnUKoD61cl-10" style="edgeStyle=orthogonalEdgeStyle;rounded=0;orthogonalLoop=1;jettySize=auto;html=1;exitX=0.55;exitY=0.95;exitDx=0;exitDy=0;exitPerimeter=0;entryX=0.496;entryY=-0.047;entryDx=0;entryDy=0;entryPerimeter=0;" parent="1" source="bVAq5hhvytEnUKoD61cl-9" target="bVAq5hhvytEnUKoD61cl-6" edge="1">
                    <mxGeometry relative="1" as="geometry">
                        <Array as="points">
                            <mxPoint x="225" y="180"/>
                            <mxPoint x="120" y="180"/>
                        </Array>
                    </mxGeometry>
                </mxCell>
                <mxCell id="bVAq5hhvytEnUKoD61cl-12" style="edgeStyle=orthogonalEdgeStyle;rounded=0;orthogonalLoop=1;jettySize=auto;html=1;exitX=0.55;exitY=0.95;exitDx=0;exitDy=0;exitPerimeter=0;entryX=0.523;entryY=-0.013;entryDx=0;entryDy=0;entryPerimeter=0;" parent="1" source="bVAq5hhvytEnUKoD61cl-9" target="bVAq5hhvytEnUKoD61cl-7" edge="1">
                    <mxGeometry relative="1" as="geometry">
                        <Array as="points">
                            <mxPoint x="225" y="180"/>
                            <mxPoint x="332" y="180"/>
                        </Array>
                    </mxGeometry>
                </mxCell>
                <mxCell id="bVAq5hhvytEnUKoD61cl-22" style="edgeStyle=orthogonalEdgeStyle;rounded=0;orthogonalLoop=1;jettySize=auto;html=1;exitX=0.55;exitY=0.95;exitDx=0;exitDy=0;exitPerimeter=0;entryX=0.5;entryY=1;entryDx=0;entryDy=0;entryPerimeter=0;strokeColor=default;startArrow=classic;startFill=1;endArrow=none;endFill=0;" parent="1" source="bVAq5hhvytEnUKoD61cl-9" target="bVAq5hhvytEnUKoD61cl-17" edge="1">
                    <mxGeometry relative="1" as="geometry">
                        <Array as="points">
                            <mxPoint x="225" y="530"/>
                            <mxPoint x="119" y="530"/>
                        </Array>
                    </mxGeometry>
                </mxCell>
                <mxCell id="bVAq5hhvytEnUKoD61cl-23" style="edgeStyle=orthogonalEdgeStyle;rounded=0;orthogonalLoop=1;jettySize=auto;html=1;exitX=0.55;exitY=0.95;exitDx=0;exitDy=0;exitPerimeter=0;entryX=0.5;entryY=1;entryDx=0;entryDy=0;entryPerimeter=0;strokeColor=default;startArrow=classic;startFill=1;endArrow=none;endFill=0;" parent="1" source="bVAq5hhvytEnUKoD61cl-9" target="bVAq5hhvytEnUKoD61cl-18" edge="1">
                    <mxGeometry relative="1" as="geometry">
                        <Array as="points">
                            <mxPoint x="225" y="530"/>
                            <mxPoint x="330" y="530"/>
                        </Array>
                    </mxGeometry>
                </mxCell>
                <mxCell id="bVAq5hhvytEnUKoD61cl-9" value="Clients" style="ellipse;shape=cloud;whiteSpace=wrap;html=1;align=center;" parent="1" vertex="1">
                    <mxGeometry x="170" y="80" width="100" height="60" as="geometry"/>
                </mxCell>
                <mxCell id="bVAq5hhvytEnUKoD61cl-14" value="Данные по книгам и покупателям разбиваются&lt;br&gt;&amp;nbsp;между серверами БД по принципу &quot;чет-нечет&quot;." style="text;html=1;align=center;verticalAlign=middle;resizable=0;points=[];autosize=1;strokeColor=none;fillColor=none;" parent="1" vertex="1">
                    <mxGeometry x="130" y="10" width="290" height="40" as="geometry"/>
                </mxCell>
                <mxCell id="bVAq5hhvytEnUKoD61cl-17" value="Slave&lt;br&gt;oddBooks_id&lt;br&gt;oddCustomer_id&lt;br&gt;Stores_id" style="strokeWidth=2;html=1;shape=mxgraph.flowchart.database;whiteSpace=wrap;" parent="1" vertex="1">
                    <mxGeometry x="67.5" y="400" width="102.5" height="110" as="geometry"/>
                </mxCell>
                <mxCell id="bVAq5hhvytEnUKoD61cl-18" value="Slave&lt;br&gt;evenBooks_id&lt;br&gt;evenCustomer_id&lt;br&gt;Stores_id" style="strokeWidth=2;html=1;shape=mxgraph.flowchart.database;whiteSpace=wrap;" parent="1" vertex="1">
                    <mxGeometry x="280" y="400" width="100" height="110" as="geometry"/>
                </mxCell>
                <mxCell id="bVAq5hhvytEnUKoD61cl-25" value="R/W" style="text;html=1;align=center;verticalAlign=middle;resizable=0;points=[];autosize=1;strokeColor=none;fillColor=none;" parent="1" vertex="1">
                    <mxGeometry x="80" y="190" width="50" height="30" as="geometry"/>
                </mxCell>
                <mxCell id="bVAq5hhvytEnUKoD61cl-26" value="R/W" style="text;html=1;align=center;verticalAlign=middle;resizable=0;points=[];autosize=1;strokeColor=none;fillColor=none;" parent="1" vertex="1">
                    <mxGeometry x="293" y="190" width="50" height="30" as="geometry"/>
                </mxCell>
                <mxCell id="bVAq5hhvytEnUKoD61cl-27" value="R/O" style="text;html=1;align=center;verticalAlign=middle;resizable=0;points=[];autosize=1;strokeColor=none;fillColor=none;" parent="1" vertex="1">
                    <mxGeometry x="322" y="509" width="40" height="30" as="geometry"/>
                </mxCell>
                <mxCell id="bVAq5hhvytEnUKoD61cl-28" value="R/O" style="text;html=1;align=center;verticalAlign=middle;resizable=0;points=[];autosize=1;strokeColor=none;fillColor=none;" parent="1" vertex="1">
                    <mxGeometry x="86" y="509" width="40" height="30" as="geometry"/>
                </mxCell>
                <mxCell id="2" value="Customer&lt;br&gt;Books&lt;br&gt;Stores" style="strokeWidth=2;html=1;shape=mxgraph.flowchart.database;whiteSpace=wrap;" vertex="1" parent="1">
                    <mxGeometry x="10" y="20" width="100" height="60" as="geometry"/>
                </mxCell>
            </root>
        </mxGraphModel>
    </diagram>
</mxfile>